<svg width="180" height="180" viewBox="0 0 180 180" fill="none" xmlns="http://www.w3.org/2000/svg">
<mask id="path-1-inside-1_50_127" fill="white">
<path d="M178.194 165.655C178.194 171.849 173.173 176.87 166.979 176.87H159.488C153.295 176.87 148.274 171.849 148.274 165.655V140.301H141.625V165.655C141.625 171.849 136.605 176.87 130.411 176.87H122.92C116.726 176.87 111.706 171.849 111.706 165.655V140.301H105.057V165.655C105.057 171.849 100.036 176.87 93.8428 176.87H86.3516C80.1581 176.87 75.1377 171.849 75.1377 165.655V140.301H68.4883V165.655C68.4883 171.849 63.4677 176.87 57.2744 176.87H49.7832C43.5898 176.87 38.5684 171.849 38.5684 165.655V140.301H31.9199V165.655C31.9199 171.849 26.8985 176.87 20.7051 176.87H13.2139C7.0206 176.87 2 171.849 2 165.655V46.0537C2 22.8283 20.8283 4 44.0537 4H136.141C159.366 4 178.194 22.8283 178.194 46.0537V165.655Z"/>
</mask>
<path d="M178.194 165.655C178.194 171.849 173.173 176.87 166.979 176.87H159.488C153.295 176.87 148.274 171.849 148.274 165.655V140.301H141.625V165.655C141.625 171.849 136.605 176.87 130.411 176.87H122.92C116.726 176.87 111.706 171.849 111.706 165.655V140.301H105.057V165.655C105.057 171.849 100.036 176.87 93.8428 176.87H86.3516C80.1581 176.87 75.1377 171.849 75.1377 165.655V140.301H68.4883V165.655C68.4883 171.849 63.4677 176.87 57.2744 176.87H49.7832C43.5898 176.87 38.5684 171.849 38.5684 165.655V140.301H31.9199V165.655C31.9199 171.849 26.8985 176.87 20.7051 176.87H13.2139C7.0206 176.87 2 171.849 2 165.655V46.0537C2 22.8283 20.8283 4 44.0537 4H136.141C159.366 4 178.194 22.8283 178.194 46.0537V165.655Z" fill="#FF6D5A"/>
<path d="M159.488 176.87L159.488 179.674H159.488V176.87ZM148.274 140.301H151.078V137.497H148.274V140.301ZM141.625 140.301V137.497H138.821V140.301H141.625ZM111.706 140.301H114.51V137.497H111.706V140.301ZM105.057 140.301V137.497H102.253V140.301H105.057ZM75.1377 140.301H77.9412V137.497H75.1377V140.301ZM68.4883 140.301V137.497H65.6847V140.301H68.4883ZM57.2744 176.87V179.674H57.2745L57.2744 176.87ZM38.5684 140.301H41.3719V137.497H38.5684V140.301ZM31.9199 140.301V137.497H29.1164V140.301H31.9199ZM13.2139 176.87L13.2138 179.674H13.2139V176.87ZM178.194 165.655H175.391C175.391 170.3 171.625 174.067 166.979 174.067V176.87V179.674C174.721 179.674 180.998 173.397 180.998 165.655H178.194ZM166.979 176.87V174.067H159.488V176.87V179.674H166.979V176.87ZM159.488 176.87L159.488 174.067C154.844 174.066 151.078 170.301 151.078 165.655H148.274H145.471C145.471 173.397 151.746 179.674 159.488 179.674L159.488 176.87ZM148.274 165.655H151.078V140.301H148.274H145.471V165.655H148.274ZM148.274 140.301V137.497H141.625V140.301V143.104H148.274V140.301ZM141.625 140.301H138.821V165.655H141.625H144.429V140.301H141.625ZM141.625 165.655H138.821C138.821 170.301 135.056 174.067 130.411 174.067V176.87V179.674C138.153 179.674 144.429 173.397 144.429 165.655H141.625ZM130.411 176.87V174.067H122.92V176.87V179.674H130.411V176.87ZM122.92 176.87V174.067C118.275 174.067 114.51 170.301 114.51 165.655H111.706H108.903C108.903 173.397 115.178 179.674 122.92 179.674V176.87ZM111.706 165.655H114.51V140.301H111.706H108.903V165.655H111.706ZM111.706 140.301V137.497H105.057V140.301V143.104H111.706V140.301ZM105.057 140.301H102.253V165.655H105.057H107.86V140.301H105.057ZM105.057 165.655H102.253C102.253 170.301 98.4875 174.067 93.8428 174.067V176.87V179.674C101.585 179.674 107.86 173.397 107.86 165.655H105.057ZM93.8428 176.87V174.067H86.3516V176.87V179.674H93.8428V176.87ZM86.3516 176.87V174.067C81.7068 174.067 77.9412 170.301 77.9412 165.655H75.1377H72.3341C72.3341 173.397 78.6095 179.674 86.3516 179.674V176.87ZM75.1377 165.655H77.9412V140.301H75.1377H72.3341V165.655H75.1377ZM75.1377 140.301V137.497H68.4883V140.301V143.104H75.1377V140.301ZM68.4883 140.301H65.6847V165.655H68.4883H71.2918V140.301H68.4883ZM68.4883 165.655H65.6847C65.6847 170.301 61.9191 174.066 57.2744 174.067L57.2744 176.87L57.2745 179.674C65.0164 179.674 71.2918 173.397 71.2918 165.655H68.4883ZM57.2744 176.87V174.067H49.7832V176.87V179.674H57.2744V176.87ZM49.7832 176.87V174.067C45.1381 174.067 41.3719 170.3 41.3719 165.655H38.5684H35.7648C35.7648 173.397 42.0414 179.674 49.7832 179.674V176.87ZM38.5684 165.655H41.3719V140.301H38.5684H35.7648V165.655H38.5684ZM38.5684 140.301V137.497H31.9199V140.301V143.104H38.5684V140.301ZM31.9199 140.301H29.1164V165.655H31.9199H34.7235V140.301H31.9199ZM31.9199 165.655H29.1164C29.1164 170.3 25.3502 174.067 20.7051 174.067V176.87V179.674C28.4469 179.674 34.7235 173.397 34.7235 165.655H31.9199ZM20.7051 176.87V174.067H13.2139V176.87V179.674H20.7051V176.87ZM13.2139 176.87L13.214 174.067C8.56921 174.066 4.80355 170.3 4.80355 165.655H2H-0.803552C-0.803552 173.397 5.47199 179.673 13.2138 179.674L13.2139 176.87ZM2 165.655H4.80355V46.0537H2H-0.803552V165.655H2ZM2 46.0537H4.80355C4.80355 24.3767 22.3767 6.80355 44.0537 6.80355V4V1.19645C19.28 1.19645 -0.803552 21.28 -0.803552 46.0537H2ZM44.0537 4V6.80355H136.141V4V1.19645H44.0537V4ZM136.141 4V6.80355C157.818 6.80355 175.391 24.3767 175.391 46.0537H178.194H180.998C180.998 21.28 160.914 1.19645 136.141 1.19645V4ZM178.194 46.0537H175.391V165.655H178.194H180.998V46.0537H178.194Z" fill="#F6F0E8" mask="url(#path-1-inside-1_50_127)"/>
<path d="M75.1371 53.8663H55.1906C55.1906 53.8663 55.1906 63.8396 65.1639 63.8396C75.1371 63.8396 75.1371 53.8663 75.1371 53.8663Z" fill="#F6F0E8"/>
<path d="M121.679 53.8664H101.733C101.733 53.8664 101.733 63.8396 111.706 63.8396C121.679 63.8396 121.679 53.8664 121.679 53.8664Z" fill="#F6F0E8"/>
<path d="M71.8127 90.4349C82.8941 94.8675 93.9755 94.8675 105.057 90.4349" stroke="#F6F0E8" stroke-width="4.20533" stroke-linecap="round"/>
</svg>
