<svg width="192" height="192" viewBox="0 0 192 192" fill="none" xmlns="http://www.w3.org/2000/svg">
<rect width="192" height="192" fill="#000000"/>
<mask id="path-1-inside-1_59_52" fill="white">
<path d="M160.588 149.457C160.588 154.817 156.242 159.161 150.883 159.161H148.457C143.097 159.161 138.752 154.817 138.752 149.457V132.474H133.899V149.457C133.899 154.817 129.554 159.161 124.194 159.161H121.769C116.409 159.161 112.064 154.817 112.063 149.457V132.474H107.212V149.457C107.212 154.817 102.866 159.161 97.5068 159.161H95.0811C89.7214 159.161 85.3762 154.817 85.376 149.457V132.474H80.5234V149.457C80.5232 154.816 76.1788 159.161 70.8193 159.161H68.3926C63.033 159.161 58.6887 154.817 58.6885 149.457V132.474H53.8359V149.457C53.8357 154.817 49.4905 159.161 44.1309 159.161H41.7051C36.3455 159.161 32.0002 154.817 32 149.457V69.3926C32.0001 49.2935 48.2935 33.0001 68.3926 33H124.194C144.293 33 160.588 49.2935 160.588 69.3926V149.457Z"/>
</mask>
<path d="M160.588 149.457C160.588 154.817 156.242 159.161 150.883 159.161H148.457C143.097 159.161 138.752 154.817 138.752 149.457V132.474H133.899V149.457C133.899 154.817 129.554 159.161 124.194 159.161H121.769C116.409 159.161 112.064 154.817 112.063 149.457V132.474H107.212V149.457C107.212 154.817 102.866 159.161 97.5068 159.161H95.0811C89.7214 159.161 85.3762 154.817 85.376 149.457V132.474H80.5234V149.457C80.5232 154.816 76.1788 159.161 70.8193 159.161H68.3926C63.033 159.161 58.6887 154.817 58.6885 149.457V132.474H53.8359V149.457C53.8357 154.817 49.4905 159.161 44.1309 159.161H41.7051C36.3455 159.161 32.0002 154.817 32 149.457V69.3926C32.0001 49.2935 48.2935 33.0001 68.3926 33H124.194C144.293 33 160.588 49.2935 160.588 69.3926V149.457Z" fill="#1EAD52"/>
<path d="M160.588 149.457L163.014 149.457V149.457H160.588ZM150.883 159.161V161.587H150.883L150.883 159.161ZM138.752 149.457H136.326V149.457L138.752 149.457ZM138.752 132.474H141.178V130.047H138.752V132.474ZM133.899 132.474V130.047H131.473V132.474H133.899ZM133.899 149.457L136.326 149.457V149.457H133.899ZM121.769 159.161L121.769 161.587H121.769V159.161ZM112.063 149.457H109.637V149.457L112.063 149.457ZM112.063 132.474H114.49V130.047H112.063V132.474ZM107.212 132.474V130.047H104.786V132.474H107.212ZM107.212 149.457L109.638 149.457V149.457H107.212ZM97.5068 159.161V161.587V161.587V159.161ZM85.376 149.457H82.9498V149.457L85.376 149.457ZM85.376 132.474H87.8022V130.047H85.376V132.474ZM80.5234 132.474V130.047H78.0973V132.474H80.5234ZM80.5234 149.457L82.9496 149.457V149.457H80.5234ZM70.8193 159.161V161.587H70.8194L70.8193 159.161ZM68.3926 159.161L68.3925 161.587H68.3926V159.161ZM58.6885 149.457H56.2623V149.457L58.6885 149.457ZM58.6885 132.474H61.1147V130.047H58.6885V132.474ZM53.8359 132.474V130.047H51.4098V132.474H53.8359ZM53.8359 149.457L56.2621 149.457V149.457H53.8359ZM32 149.457H29.5738V149.457L32 149.457ZM32 69.3926L29.5738 69.3926V69.3926H32ZM68.3926 33V30.5738H68.3926L68.3926 33ZM160.588 69.3926H163.014V69.3926L160.588 69.3926ZM160.588 149.457L158.162 149.457C158.162 153.476 154.903 156.735 150.883 156.735L150.883 159.161L150.883 161.587C157.582 161.587 163.014 156.157 163.014 149.457L160.588 149.457ZM150.883 159.161V156.735H148.457V159.161V161.587H150.883V159.161ZM148.457 159.161V156.735C144.437 156.735 141.178 153.476 141.178 149.457L138.752 149.457L136.326 149.457C136.326 156.157 141.758 161.587 148.457 161.587V159.161ZM138.752 149.457H141.178V132.474H138.752H136.326V149.457H138.752ZM138.752 132.474V130.047H133.899V132.474V134.9H138.752V132.474ZM133.899 132.474H131.473V149.457H133.899H136.326V132.474H133.899ZM133.899 149.457L131.473 149.457C131.473 153.476 128.214 156.735 124.194 156.735V159.161V161.587C130.894 161.587 136.325 156.157 136.326 149.457L133.899 149.457ZM124.194 159.161V156.735H121.769V159.161V161.587H124.194V159.161ZM121.769 159.161L121.769 156.735C117.749 156.735 114.49 153.476 114.49 149.457L112.063 149.457L109.637 149.457C109.638 156.157 115.069 161.587 121.769 161.587L121.769 159.161ZM112.063 149.457H114.49V132.474H112.063H109.637V149.457H112.063ZM112.063 132.474V130.047H107.212V132.474V134.9H112.063V132.474ZM107.212 132.474H104.786V149.457H107.212H109.638V132.474H107.212ZM107.212 149.457L104.786 149.457C104.786 153.476 101.527 156.735 97.5068 156.735V159.161V161.587C104.206 161.587 109.638 156.157 109.638 149.457L107.212 149.457ZM97.5068 159.161V156.735H95.0811V159.161V161.587H97.5068V159.161ZM95.0811 159.161V156.735C91.0612 156.735 87.8023 153.476 87.8022 149.457L85.376 149.457L82.9498 149.457C82.9501 156.157 88.3817 161.587 95.0811 161.587V159.161ZM85.376 149.457H87.8022V132.474H85.376H82.9498V149.457H85.376ZM85.376 132.474V130.047H80.5234V132.474V134.9H85.376V132.474ZM80.5234 132.474H78.0973V149.457H80.5234H82.9496V132.474H80.5234ZM80.5234 149.457L78.0973 149.457C78.0971 153.476 74.8388 156.735 70.8192 156.735L70.8193 159.161L70.8194 161.587C77.5187 161.587 82.9493 156.156 82.9496 149.457L80.5234 149.457ZM70.8193 159.161V156.735H68.3926V159.161V161.587H70.8193V159.161ZM68.3926 159.161L68.3926 156.735C64.373 156.735 61.1148 153.477 61.1147 149.457L58.6885 149.457L56.2623 149.457C56.2626 156.156 61.693 161.587 68.3925 161.587L68.3926 159.161ZM58.6885 149.457H61.1147V132.474H58.6885H56.2623V149.457H58.6885ZM58.6885 132.474V130.047H53.8359V132.474V134.9H58.6885V132.474ZM53.8359 132.474H51.4098V149.457H53.8359H56.2621V132.474H53.8359ZM53.8359 149.457L51.4098 149.457C51.4096 153.476 48.1508 156.735 44.1309 156.735V159.161V161.587C50.8302 161.587 56.2618 156.157 56.2621 149.457L53.8359 149.457ZM44.1309 159.161V156.735H41.7051V159.161V161.587H44.1309V159.161ZM41.7051 159.161V156.735C37.6852 156.735 34.4264 153.476 34.4262 149.457L32 149.457L29.5738 149.457C29.5741 156.157 35.0057 161.587 41.7051 161.587V159.161ZM32 149.457H34.4262V69.3926H32H29.5738V149.457H32ZM32 69.3926L34.4262 69.3926C34.4262 50.6335 49.6335 35.4262 68.3926 35.4262L68.3926 33L68.3926 30.5738C46.9536 30.5739 29.5739 47.9536 29.5738 69.3926L32 69.3926ZM68.3926 33V35.4262H124.194V33V30.5738H68.3926V33ZM124.194 33V35.4262C142.954 35.4262 158.162 50.6335 158.162 69.3926L160.588 69.3926L163.014 69.3926C163.014 47.9535 145.633 30.5738 124.194 30.5738V33ZM160.588 69.3926H158.162V149.457H160.588H163.014V69.3926H160.588Z" fill="#FAF8F4" mask="url(#path-1-inside-1_59_52)"/>
<path d="M85.3759 69.3927H70.8188C70.8188 69.3927 70.8188 76.6712 78.0974 76.6712C85.3759 76.6712 85.3759 69.3927 85.3759 69.3927Z" fill="#FAF8F4"/>
<path d="M119.342 69.3928H104.785C104.785 69.3928 104.785 76.6713 112.064 76.6713C119.342 76.6713 119.342 69.3928 119.342 69.3928Z" fill="#FAF8F4"/>
<path d="M82.9497 96.0807C91.037 99.3157 99.1242 99.3157 107.211 96.0807" stroke="#FAF8F4" stroke-width="3.63927" stroke-linecap="round"/>
</svg>
