<svg xmlns="http://www.w3.org/2000/svg" style="display:none">

  <!-- Help (question circle) -->
  <symbol id="icon-help" viewBox="0 0 24 24" fill="none" stroke="currentColor" stroke-width="2" stroke-linecap="round" stroke-linejoin="round">
    <circle cx="12" cy="12" r="10" />
    <path d="M9.09 9a3 3 0 0 1 5.83 1c0 2-3 3-3 3" />
    <path d="M12 17h.01" />
  </symbol>

  <!-- Feedback (speech bubble + plus) -->
  <symbol id="icon-feedback" viewBox="0 0 24 24" fill="none" stroke="currentColor" stroke-width="2" stroke-linecap="round" stroke-linejoin="round">
    <path d="M21 15a2 2 0 0 1-2 2H7l-4 4V5a2 2 0 0 1 2-2h14a2 2 0 0 1 2 2z"/>
    <path d="M12 7v6"/>
    <path d="M9 10h6"/>
  </symbol>

  <!-- Moon (dark mode) -->
  <symbol id="icon-moon" viewBox="0 0 24 24" fill="none" stroke="currentColor" stroke-width="2" stroke-linecap="round" stroke-linejoin="round">
    <path d="M20.985 12.486a9 9 0 1 1-9.473-9.472c.405-.022.617.46.402.803a6 6 0 0 0 8.268 8.268c.344-.215.825-.004.803.401" />
  </symbol>

  <!-- Checkbox checked -->
  <symbol id="icon-check" viewBox="0 0 24 24" fill="none" stroke="#4caf88" stroke-width="2" stroke-linecap="round" stroke-linejoin="round">
    <path d="M21 10.656V19a2 2 0 0 1-2 2H5a2 2 0 0 1-2-2V5a2 2 0 0 1 2-2h12.344" />
    <path d="m9 11 3 3L22 4" />
  </symbol>

  <!-- Checkbox unchecked -->
  <symbol id="icon-uncheck" viewBox="0 0 24 24" fill="none" stroke="currentColor" stroke-width="2" stroke-linecap="round" stroke-linejoin="round">
    <rect x="3" y="3" width="18" height="18" rx="2" />
  </symbol>

  <!-- Cookie -->
  <symbol id="icon-cookie" viewBox="0 0 24 24" fill="none" stroke="currentColor" stroke-width="2" stroke-linecap="round" stroke-linejoin="round">
    <path d="M12 2a10 10 0 1 0 10 10 4 4 0 0 1-5-5 4 4 0 0 1-5-5" />
    <path d="M8.5 8.5v.01" />
    <path d="M16 15.5v.01" />
    <path d="M12 12v.01" />
    <path d="M11 17v.01" />
    <path d="M7 14v.01" />
  </symbol>

  <!-- Info (i in circle, hollow) -->
  <symbol id="icon-info" viewBox="0 0 24 24" fill="none" stroke="currentColor" stroke-width="2" stroke-linecap="round" stroke-linejoin="round">
    <circle cx="12" cy="12" r="10" />
    <path d="M12 16v-4" />
    <path d="M12 8h.01" />
  </symbol>

  <!-- Archive -->
  <symbol id="icon-archive" viewBox="0 0 24 24" fill="none" stroke="currentColor" stroke-width="2" stroke-linecap="round" stroke-linejoin="round">
    <rect width="20" height="5" x="2" y="3" rx="1" />
    <path d="M4 8v11a2 2 0 0 0 2 2h12a2 2 0 0 0 2-2V8" />
    <path d="M10 12h4" />
  </symbol>

  <!-- Circle X (hollow) -->
  <symbol id="icon-circle-x" viewBox="0 0 24 24" fill="none" stroke="currentColor" stroke-width="2" stroke-linecap="round" stroke-linejoin="round">
    <circle cx="12" cy="12" r="10" />
    <path d="m15 9-6 6" />
    <path d="m9 9 6 6" />
  </symbol>

  <!-- Play (triangle) -->
  <symbol id="icon-play" viewBox="0 0 24 24" fill="currentColor" stroke="currentColor" stroke-width="2" stroke-linecap="round" stroke-linejoin="round">
    <polygon points="6 3 20 12 6 21 6 3" />
  </symbol>

  <!-- Sigma (mathsy alt for play) -->
  <symbol id="icon-sigma" viewBox="0 0 24 24" fill="none" stroke="currentColor" stroke-width="2" stroke-linecap="round" stroke-linejoin="round">
    <path d="M18 7V4H6l8 8-8 8h12v-3" />
  </symbol>

  <!-- Calendar -->
  <symbol id="icon-calendar" viewBox="0 0 24 24" fill="none" stroke="currentColor" stroke-width="2" stroke-linecap="round" stroke-linejoin="round">
    <rect width="18" height="18" x="3" y="4" rx="2" ry="2" />
    <line x1="16" x2="16" y1="2" y2="6" />
    <line x1="8" x2="8" y1="2" y2="6" />
    <line x1="3" x2="21" y1="10" y2="10" />
  </symbol>

  <!-- Stats (bar chart) -->
  <symbol id="icon-stats" viewBox="0 0 24 24" fill="none" stroke="currentColor" stroke-width="2" stroke-linecap="round" stroke-linejoin="round">
    <path d="M3 3v18h18" />
    <path d="M18 17V9" />
    <path d="M13 17V5" />
    <path d="M8 17v-3" />
  </symbol>

  <!-- Send (paper plane) -->
  <symbol id="icon-send" viewBox="0 0 24 24" fill="none" stroke="currentColor" stroke-width="2" stroke-linecap="round" stroke-linejoin="round">
    <path d="m22 2-7 20-4-9-9-4Z" />
    <path d="M22 2 11 13" />
  </symbol>

</svg>
